<svg width="239" height="36" viewBox="0 0 239 36" fill="none" xmlns="http://www.w3.org/2000/svg">
<path d="M76.5913 31.9224V35.6973H73.0806V35.6848C73.328 35.6764 73.5713 35.6764 73.8146 35.6722V31.9224H76.5913Z" fill="white"/>
<path d="M73.0806 31.9224H73.8146V35.6722C73.5755 35.6806 73.328 35.6806 73.0806 35.6848V31.9224Z" fill="white"/>
<path d="M72.2921 31.9224V35.6974H67.0742V10.6736H56.3911V5.47678H60.1409C60.1409 6.12271 60.1493 6.73509 60.1745 7.16712H70.5053L70.5262 7.72916C70.5514 8.43802 70.5472 9.11751 70.5472 9.78861V9.86411C70.5388 10.2039 70.5388 10.5352 70.5388 10.8624C70.5472 11.9236 70.5472 12.9722 70.5472 14.0124V31.9224H72.2921Z" fill="white"/>
<path d="M56.3909 0.430939H80.8652V3.85776H60.191C60.1701 4.24784 60.1533 4.83505 60.1449 5.47259H56.3867V0.430939H56.3909Z" fill="white"/>
<path d="M78.8224 7.19229L80.8693 7.20069V10.6694H77.757V16.2396H74.0366V7.19649H76.0374C76.1464 7.19649 76.2471 7.20487 76.3393 7.20487H76.461C76.633 7.20487 76.7965 7.21326 76.9727 7.20487C77.2202 7.19649 77.4718 7.19649 77.7235 7.19649H78.8224V7.19229Z" fill="white"/>
<path d="M87.0225 0.430939V10.6485H82.0186V7.30555H83.0588V3.85776H82.0186V0.430939H87.0225Z" fill="white"/>
<path d="M76.3728 31.9224V35.4457L75.9576 35.5716C75.7772 35.6261 74.867 35.6554 73.8101 35.6764V31.9224H76.3728Z" fill="white"/>
<path d="M134.289 0.556732V12.5024L130.372 12.4478V0.556732H134.289Z" fill="white"/>
<path d="M130.858 13.3203L133.731 16.2521C132.226 16.2605 130.711 16.2647 129.214 16.2396C129.004 16.2396 128.757 16.0802 128.602 15.9208C127.444 14.7254 126.282 13.53 125.125 12.3262C125.007 12.2088 124.885 12.0871 124.776 11.9613C122.352 9.45723 119.932 6.95317 117.516 4.44912C117.377 4.3107 117.252 4.15132 117.008 4.04646V16.2228H113.02V0.510591H114.974C115.964 0.510591 116.962 0.523179 117.952 0.502207C118.3 0.493818 118.535 0.615445 118.77 0.85872C121.618 3.81996 124.479 6.77282 127.339 9.72567L127.394 9.7802C128.254 10.6652 129.105 11.5502 129.965 12.4352L130.313 12.7708C130.334 12.7834 130.351 12.8044 130.372 12.8253L130.858 13.3203Z" fill="white"/>
<path d="M165.101 19.9307C165.101 20.996 165.101 21.9943 165.101 23.0429C164.879 23.0429 164.686 23.0429 164.489 23.0429C159.799 23.0429 155.11 23.0429 150.421 23.0387C149.838 23.0387 149.251 23.0597 148.978 23.6721C148.689 24.3264 148.68 25.0227 148.999 25.6728C149.2 26.0796 149.595 26.2139 150.043 26.2097C151.155 26.2055 152.262 26.2097 153.374 26.2097C156.092 26.2097 158.81 26.1971 161.528 26.2181C162.153 26.2223 162.79 26.2726 163.398 26.4152C164.778 26.7465 165.751 27.9084 165.865 29.4729C165.944 30.5467 165.948 31.6582 165.764 32.7152C165.466 34.4307 164.006 35.6345 162.249 35.647C156.599 35.6806 150.949 35.6596 145.257 35.6596C145.257 34.6278 145.257 33.6044 145.257 32.5222C145.463 32.5222 145.656 32.5222 145.849 32.5222C150.719 32.5222 155.592 32.5222 160.462 32.5222C161.59 32.5222 161.947 32.1657 161.955 31.05C161.955 30.9032 161.96 30.7522 161.955 30.6054C161.926 29.7665 161.494 29.3471 160.638 29.3429C156.842 29.3387 153.051 29.3513 149.255 29.3303C148.651 29.3261 148.022 29.2758 147.443 29.1122C145.778 28.6508 144.834 27.3631 144.834 25.6434C144.834 24.8213 144.809 23.9908 144.909 23.1813C145.132 21.4029 146.646 20.0565 148.449 19.9474C148.814 19.9265 149.179 19.9223 149.544 19.9223C154.498 19.9223 159.451 19.9223 164.409 19.9223C164.623 19.9307 164.837 19.9307 165.101 19.9307Z" fill="white"/>
<path d="M221.487 32.5306C224.83 32.5306 228.042 32.5306 231.255 32.5306C231.704 32.5306 232.149 32.539 232.598 32.5264C233.462 32.5096 234.057 31.9811 234.07 31.1213C234.095 28.915 234.095 26.7088 234.07 24.5025C234.061 23.5756 233.432 23.0471 232.43 23.0429C229.796 23.0387 227.162 23.0429 224.528 23.0429C223.517 23.0429 222.506 23.0429 221.495 23.0429C221.331 23.0429 221.172 23.0429 220.95 23.0429C220.95 27.2708 220.95 31.4442 220.95 35.6428C219.603 35.6428 218.32 35.6428 216.99 35.6428C216.99 30.425 216.99 25.1988 216.99 19.9306C217.175 19.9306 217.338 19.9306 217.498 19.9306C222.653 19.9306 227.803 19.9642 232.958 19.918C235.588 19.8929 237.484 21.6881 237.92 23.6636C238.017 24.0957 238.059 24.5445 238.063 24.9849C238.08 26.8807 238.075 28.7724 238.067 30.6683C238.054 33.5456 235.899 35.6722 233 35.6764C230.349 35.6764 227.699 35.6848 225.048 35.6638C224.804 35.6638 224.507 35.5338 224.326 35.366C223.483 34.5733 222.674 33.7512 221.852 32.9375C221.747 32.8284 221.659 32.7193 221.487 32.5306Z" fill="white"/>
<path d="M213.689 35.647C212.183 35.6554 210.669 35.6596 209.172 35.6344C208.962 35.6344 208.714 35.4751 208.559 35.3157C207.402 34.1203 206.24 32.9249 205.082 31.7211C204.965 31.6036 204.843 31.482 204.734 31.3562C202.31 28.8521 199.889 26.348 197.473 23.844C197.335 23.7056 197.209 23.5462 196.966 23.4413V35.6177H192.977V19.9055H194.932C195.922 19.9055 196.92 19.918 197.91 19.8971C198.258 19.8887 198.493 20.0103 198.728 20.2536C201.576 23.2148 204.436 26.1677 207.297 29.1205L207.351 29.1751C208.211 30.0601 209.063 30.9451 209.922 31.8301L210.271 32.1657C210.291 32.1783 210.308 32.1992 210.329 32.2202L210.82 32.7109L213.689 35.647Z" fill="white"/>
<path d="M214.243 19.9517V31.8973L210.325 31.8428V19.9517H214.243Z" fill="white"/>
<path d="M118.472 24.5529C118.438 22.1537 116.358 20.0188 113.946 19.9558C111.962 19.9013 109.974 19.9474 107.986 19.9474V19.9265C106.111 19.9265 104.24 19.9265 102.37 19.9349C102.269 19.9349 102.172 19.9433 102.072 19.9433C99.6055 20.0481 97.5376 22.0992 97.4915 24.5403C97.4579 26.7256 97.4579 28.9192 97.4999 31.1087C97.5376 33.5205 99.639 35.6345 102.059 35.6597C105.998 35.6932 109.94 35.6932 113.887 35.6597C116.312 35.6345 118.438 33.4786 118.472 31.0752C118.497 28.9025 118.497 26.7298 118.472 24.5529ZM114.508 30.9703C114.508 31.9686 113.954 32.5222 112.935 32.5306C111.283 32.539 109.626 32.5306 107.973 32.5306C106.346 32.5306 104.731 32.539 103.104 32.5306C101.988 32.5222 101.464 32.0021 101.464 30.899V24.6284C101.464 23.6091 102 23.0513 103.003 23.0513C106.321 23.0387 109.63 23.0387 112.939 23.0513C113.95 23.0513 114.504 23.6133 114.504 24.6116C114.512 26.7298 114.512 28.848 114.508 30.9703Z" fill="white"/>
<path d="M174.547 30.1734C175.57 30.1734 176.481 30.1734 177.387 30.1734C178.515 30.1734 179.639 30.165 180.767 30.1818C180.939 30.186 181.191 30.2572 181.266 30.3831C181.833 31.3058 182.365 32.2538 182.969 33.294C182.722 33.294 182.554 33.294 182.386 33.294C179.337 33.294 176.288 33.2982 173.242 33.2856C172.907 33.2856 172.706 33.3653 172.542 33.6799C172.236 34.2629 171.892 34.8249 171.535 35.3786C171.451 35.5086 171.271 35.6512 171.133 35.6554C169.79 35.6764 168.452 35.668 167.047 35.668C167.135 35.496 167.194 35.366 167.261 35.2444C170.139 30.2698 173.016 25.2953 175.885 20.3165C176.04 20.0481 176.2 19.9139 176.535 19.9181C178.125 19.939 179.714 19.9348 181.308 19.9223C181.589 19.9181 181.753 20.0061 181.9 20.2536C184.794 25.2743 187.696 30.2908 190.599 35.3073C190.653 35.4038 190.704 35.5003 190.788 35.6638C189.349 35.6638 187.982 35.6764 186.614 35.647C186.48 35.6428 186.316 35.4289 186.228 35.2737C183.892 31.2219 181.56 27.1702 179.228 23.1142C179.131 22.9464 179.031 22.7829 178.897 22.5564C177.437 25.1065 176.023 27.5896 174.547 30.1734Z" fill="white"/>
<path d="M121.119 19.9601C122.444 19.9601 123.732 19.9601 125.082 19.9601C125.082 20.1782 125.082 20.3711 125.082 20.5641C125.082 23.9406 125.082 27.3128 125.082 30.6893C125.082 30.92 125.087 31.1507 125.12 31.3772C125.225 32.0399 125.741 32.5223 126.412 32.5223C129.872 32.5349 133.337 32.5349 136.797 32.5223C137.624 32.5181 138.165 31.9015 138.165 31.0207C138.169 27.5477 138.165 24.0748 138.165 20.5976C138.165 20.4005 138.165 20.2075 138.165 19.9727C139.49 19.9727 140.786 19.9727 142.149 19.9727C142.149 20.1488 142.149 20.325 142.149 20.5012C142.149 23.8609 142.082 27.2206 142.17 30.5761C142.242 33.3989 139.998 35.7436 137.016 35.6891C133.387 35.6219 129.759 35.6723 126.135 35.6723C123.275 35.6723 121.152 33.7051 121.106 30.8697C121.047 27.3128 121.089 23.756 121.094 20.2033C121.089 20.1362 121.106 20.0733 121.119 19.9601Z" fill="white"/>
<path d="M78.9233 26.2138C82.929 26.2138 86.8423 26.2138 90.8018 26.2138C90.8018 24.1166 90.8018 22.0656 90.8018 19.9767C92.144 19.9767 93.4401 19.9767 94.7697 19.9767C94.7697 25.182 94.7697 30.3914 94.7697 35.6386C93.4821 35.6386 92.186 35.6386 90.827 35.6386C90.827 33.5624 90.827 31.4861 90.827 29.3512C90.5921 29.3512 90.416 29.3512 90.2356 29.3512C87.6351 29.3512 85.0346 29.3596 82.4382 29.3386C82.2076 29.3386 81.9223 29.2254 81.7587 29.066C80.8276 28.1558 79.9216 27.2205 78.9233 26.2138Z" fill="white"/>
<path d="M77.7359 20.0229H74.2168V35.7016H77.7359V20.0229Z" fill="white"/>
<path d="M90.8311 6.79388H109.244V10.2417H94.8074V13.0939H109.232V16.2271H90.8311V6.79388Z" fill="white"/>
<path d="M109.282 16.2774H90.7808V6.73935H109.295V10.2878H94.8577V13.0393H109.282V16.2774ZM90.8814 16.1767H109.182V13.1484H94.7571V10.1913H109.194V6.84421H90.8814V16.1767Z" fill="white"/>
<path d="M109.244 0.539948H90.8311V4.04645H109.244V0.539948Z" fill="white"/>
<path d="M109.295 4.10099H90.7808V0.489624H109.295V4.10099ZM90.8814 4.00033H109.194V0.594484H90.8814V4.00033Z" fill="white"/>
<path d="M75.7729 31.9224H70.5425V35.7015H75.7729V31.9224Z" fill="white"/>
<path d="M84.6231 0.405762H79.5898V3.86194H84.6231V0.405762Z" fill="white"/>
<path d="M87.0267 7.19226H79.2461V10.6484H87.0267V7.19226Z" fill="white"/>
<path d="M15.9067 8.73587V8.76105L14.0947 9.85998L15.9067 8.73587Z" fill="#009FE3"/>
<path d="M16.5523 8.34999L15.9064 8.74007V8.76105L14.0944 9.85998L10.6214 12.0159C10.4704 12.1249 10.3194 12.2088 10.1475 12.2969V4.14722L16.5523 8.34999Z" fill="white"/>
<path d="M44.1558 15.9627L44.1349 22.9045V24.7794H44.1139L35.8971 29.7833C34.4752 28.8353 33.0491 27.9084 31.6272 26.9814C30.6373 26.3355 29.6852 25.6895 28.7163 25.0394H28.6953L27.0553 23.8985L24.7903 25.4295L24.6813 25.4924L8.07565 35.7142C5.44577 33.9693 2.79072 32.2202 0.139867 30.4963C-0.011131 30.4082 -0.01113 30.4082 0.00984198 30.2824V21.6336L1.84279 22.8416C2.98786 23.5965 4.1497 24.3515 5.29477 25.1065L7.34163 26.4445L8.09663 26.9395L8.85162 26.4655L10.7265 25.3246C14.1995 23.1897 17.6934 21.0338 21.1622 18.8988L25 16.5248C25.6921 16.1137 26.38 15.6859 27.135 15.2749L30.4779 17.4727C31.5768 18.1858 32.6758 18.9156 33.7537 19.6286L35.2427 20.5975L35.9768 21.0925L37.7887 19.9055C39.4287 18.8904 41.0897 17.8586 42.7465 16.8226L44.1558 15.9627Z" fill="white"/>
<path d="M27.1433 15.2707L27.0552 23.8985L35.897 29.7833L35.9851 21.0925L27.1433 15.2707Z" fill="#9A9A9A"/>
<path d="M0.0141602 21.6336L0.0267428 30.4167L8.07998 35.7142L8.10095 26.9395L0.0141602 21.6336Z" fill="#9A9A9A"/>
</svg>